<?xml version="1.0" encoding="iso-8859-1"?>
<!-- Generator: Adobe Illustrator 19.0.0, SVG Export Plug-In . SVG Version: 6.00 Build 0)  -->
<svg xmlns="http://www.w3.org/2000/svg" xmlns:xlink="http://www.w3.org/1999/xlink" version="1.1" id="Layer_1" x="0px" y="0px" viewBox="0 0 511.916 511.916" style="enable-background:new 0 0 511.916 511.916;" xml:space="preserve" width="512" height="512">
<linearGradient id="SVGID_1_" gradientUnits="userSpaceOnUse" x1="255.958" y1="-2.758497e-009" x2="255.958" y2="511.916">
	<stop offset="0" style="stop-color:#2AF598"/>
	<stop offset="1" style="stop-color:#009EFD"/>
</linearGradient>
<path style="fill:url(#SVGID_1_);" d="M194.519,511.916V150.788L479.397,378H304.371L194.519,511.916z M234.519,233.855v166.229  L285.447,338h79.648L234.519,233.855z M234.519,0h-40v92h40V0z M124.519,162h-92v40h92V162z M396.519,162h-92v40h92V162z   M165.021,259.782l-28.284-28.285l-65.054,65.053l28.284,28.285L165.021,259.782z M165.021,104.218L99.968,39.165L71.684,67.449  l65.054,65.054L165.021,104.218z M357.354,67.449L329.07,39.165l-65.054,65.054l28.284,28.284L357.354,67.449z"/>















</svg>
