<?xml version="1.0" encoding="iso-8859-1"?>
<!-- Generator: Adobe Illustrator 19.0.0, SVG Export Plug-In . SVG Version: 6.00 Build 0)  -->
<svg xmlns="http://www.w3.org/2000/svg" xmlns:xlink="http://www.w3.org/1999/xlink" version="1.1" id="Layer_1" x="0px" y="0px" viewBox="0 0 512.916 512.916" style="enable-background:new 0 0 512.916 512.916;" xml:space="preserve" width="512" height="512">
<linearGradient id="SVGID_1_" gradientUnits="userSpaceOnUse" x1="256.458" y1="-1.433364e-009" x2="256.458" y2="512.916">
	<stop offset="0" style="stop-color:#2AF598"/>
	<stop offset="1" style="stop-color:#009EFD"/>
</linearGradient>
<path style="fill:url(#SVGID_1_);" d="M164.52,392.852c-81.617-25.58-141-101.91-141-191.852c0-110.832,90.168-201,201-201  s201,90.168,201,201c0,23.402-4.034,45.876-11.419,66.781l-33.606-26.804c3.279-12.787,5.026-26.182,5.026-39.977  c0-88.776-72.224-161-161-161s-161,72.224-161,161c0,67.578,41.855,125.556,101,149.396V392.852z M314.371,379h175.025  L204.52,151.788v361.128L314.371,379z M375.096,339h-79.648l-50.928,62.084V234.855L375.096,339z"/>















</svg>
